<svg xmlns="http://www.w3.org/2000/svg" width="166.786" height="30.119" viewBox="0 0 166.786 30.119">
  <defs>
    <style>.a {
      fill: #e31337;
    }
    path{
      fill: #fff;
    }
    </style>
  </defs>
  <g transform="translate(-8.957)">
    <g transform="translate(8.957 0)">
      <path
        d="M96.525,28.584a7.992,7.992,0,0,0-.632-.5,8.422,8.422,0,0,0-2.249-1.171l-.027-.009A8.561,8.561,0,0,0,83.181,38.783l-.494.56-6.909,7.849a3.266,3.266,0,0,0-.566,3.416A3.234,3.234,0,0,0,76.07,51.8a3.268,3.268,0,0,0,4.614-.3c.016-.018.034-.037.049-.057h0a1.985,1.985,0,0,0,2.675-2.926l-.058-.043c-.016-.012-.031-.025-.045-.037s-.064-.061-.094-.093A1.226,1.226,0,0,1,84.928,46.6l.042.039.009-.009A1.985,1.985,0,0,0,87.6,43.652l.49-.557a8.557,8.557,0,0,0,8.433-14.519ZM94.66,35.56a3.16,3.16,0,0,1-.9.714,3.213,3.213,0,1,1,.9-.714Z"
        transform="translate(-63.765 -22.497)"/>
      <path class="a"
            d="M12.958,16.848A1.982,1.982,0,0,0,14.235,14.4l.7-.234a8.576,8.576,0,0,0,3.5,2.427A8.56,8.56,0,0,1,27.67,2.722,8.56,8.56,0,0,0,12.883,7.949l-.709.234-9.932,3.3a3.268,3.268,0,1,0,2.058,6.2l.072-.024h0a1.985,1.985,0,0,0,3.785-1.178c-.01-.021-.019-.045-.028-.067a.3.3,0,0,1-.019-.054c-.015-.043-.025-.087-.036-.128a1.228,1.228,0,0,1,2.364-.645.259.259,0,0,0,.016.055h.012a1.985,1.985,0,0,0,2.493,1.2Z"
            transform="translate(-0.001 -0.011)"/>
      <path
        d="M265.253,37.094l8.927-10.147a.432.432,0,0,0-.273-.757h-2.838a2.213,2.213,0,0,0-1.6.787l-6.574,8.209h-.6l1.151-8.027a.846.846,0,0,0-.848-.969h-2.243a1.116,1.116,0,0,0-1.09.969l-2.726,19.267a.811.811,0,0,0,.818.969h2.271a1.134,1.134,0,0,0,1.084-.969l1-7.089h.545l4.363,7.3a1.674,1.674,0,0,0,1.423.757h3.15a.5.5,0,0,0,.456-.727Z"
        transform="translate(-217.559 -21.321)"/>
      <path
        d="M362.93,26.189H352.206a1.116,1.116,0,0,0-1.09.969L348.39,46.425a.812.812,0,0,0,.818.969h10.973a1.1,1.1,0,0,0,1.06-.969l.212-1.516a.785.785,0,0,0-.818-.93h-7.673l.727-5.181h6.028a1.134,1.134,0,0,0,1.09-.969l.212-1.488a.81.81,0,0,0-.818-.969h-6.024l.789-5.726h7.482a1.159,1.159,0,0,0,1.09-.93l.212-1.558a.811.811,0,0,0-.818-.969Z"
        transform="translate(-292.337 -21.32)"/>
      <path
        d="M454.448,26.187h-2.455a1.711,1.711,0,0,0-1.423.878l-5.021,9.329-2.46-9.329a1.183,1.183,0,0,0-1.181-.878h-2.576a.672.672,0,0,0-.666.848l4.181,13.085-.909,6.3a.831.831,0,0,0,.854.967h2.3a1.1,1.1,0,0,0,1.06-.969l.909-6.362,7.783-13.018A.513.513,0,0,0,454.448,26.187Z"
        transform="translate(-365.8 -21.319)"/>
      <path
        d="M627.553,46.425l2.726-19.267a.826.826,0,0,0-.818-.969h-2.332a1.1,1.1,0,0,0-1.06.969L624.918,35.4H618.5l1.151-8.239a.792.792,0,0,0-.789-.969h-2.3a1.116,1.116,0,0,0-1.09.969L612.74,46.425a.812.812,0,0,0,.818.969h2.332a1.125,1.125,0,0,0,1.06-.969l1.06-7.573H624.4l-1.06,7.573a.826.826,0,0,0,.818.969h2.3A1.116,1.116,0,0,0,627.553,46.425Z"
        transform="translate(-507.524 -21.321)"/>
      <path
        d="M719.358,46.484,715.542,27.1a1.209,1.209,0,0,0-1.183-.908H712.33a1.7,1.7,0,0,0-1.423.908l-9.245,19.386a.594.594,0,0,0,.515.909h2.483a1.508,1.508,0,0,0,1.333-.93l1.817-4.181h6.5l.666,4.211a1.084,1.084,0,0,0,1.092.909h2.544a.759.759,0,0,0,.748-.919ZM709.211,39l3.362-7.876L713.784,39Z"
        transform="translate(-579.851 -21.321)"/>
      <path
        d="M813.179,26.189h-2.3a1.116,1.116,0,0,0-1.092.969l-2.725,19.267a.81.81,0,0,0,.816.969H810.2a1.129,1.129,0,0,0,1.062-.969l2.7-19.267a.79.79,0,0,0-.785-.969Z"
        transform="translate(-665.703 -21.321)"/>
      <path
        d="M864.033,26.19h-2.271a1.077,1.077,0,0,0-1.06.969l-1.674,12.6L854.34,27.038a1.386,1.386,0,0,0-1.272-.848h-2.453a1.116,1.116,0,0,0-1.092.969L846.8,46.426a.81.81,0,0,0,.817.969h2.273a1.075,1.075,0,0,0,1.034-.969l1.7-12.54,4.6,12.661a1.384,1.384,0,0,0,1.272.848h2.544a1.157,1.157,0,0,0,1.09-.969l2.693-19.267a.805.805,0,0,0-.789-.969Z"
        transform="translate(-698.052 -21.321)"/>
      <path
        d="M531.944,28.174a10.6,10.6,0,1,0-2.507,18.138.681.681,0,0,0,.311-.259,2.127,2.127,0,0,0,.353-1.175l.372-2.929a.642.642,0,0,0-1.051-.573,6.323,6.323,0,1,1,1.1-8.544.645.645,0,0,0,1.17-.283l.491-3.77a.666.666,0,0,0-.244-.606Z"
        transform="translate(-427.801 -21.094)"/>
      <circle class="a" cx="3.999" cy="3.999" r="3.999" transform="translate(93.693 11.51)"/>
    </g>
  </g>
</svg>
